<?xml version="1.0" standalone="no"?>
<!DOCTYPE svg PUBLIC "-//W3C//DTD SVG 20010904//EN"
 "http://www.w3.org/TR/2001/REC-SVG-20010904/DTD/svg10.dtd">
<svg version="1.0" xmlns="http://www.w3.org/2000/svg"
 width="108.000000pt" height="108.000000pt" viewBox="0 0 108.000000 108.000000"
 preserveAspectRatio="xMidYMid meet">
<metadata>
Created by potrace 1.11, written by Peter Selinger 2001-2013
</metadata>
<g transform="translate(0.000000,108.000000) scale(0.100000,-0.100000)"
fill="#000000" stroke="none">
<path d="M265 963 c-41 -21 -65 -43 -81 -75 -14 -28 -174 -638 -182 -695 -3
-27 2 -39 31 -68 l35 -35 101 0 100 0 -24 36 c-30 43 -40 91 -32 149 4 24 51
180 106 347 55 166 103 315 107 331 l6 27 -68 0 c-43 -1 -80 -7 -99 -17z"/>
<path d="M565 968 c-14 -39 -74 -206 -80 -223 -7 -17 -3 -16 21 6 80 73 169
91 234 47 42 -29 80 -103 87 -171 7 -69 -27 -209 -74 -305 -35 -72 -124 -176
-183 -215 -24 -15 -20 -16 83 -16 69 -1 119 4 140 13 47 19 93 77 110 138 47
163 157 615 157 645 0 25 -8 43 -29 64 l-29 29 -217 0 c-163 0 -217 -3 -220
-12z"/>
<path d="M554 715 c-71 -56 -150 -210 -198 -387 -33 -121 -33 -152 -1 -183 64
-65 168 7 246 170 50 103 72 190 73 291 1 100 -13 134 -58 134 -18 0 -45 -11
-62 -25z"/>
</g>
</svg>
